<svg width="140" height="140" viewBox="0 0 140 140" fill="none" xmlns="http://www.w3.org/2000/svg">
<rect width="140" height="140" rx="32" fill="black"/>
<path d="M29.7081 102.001H16.8558L36.4389 45.2733H51.8949L71.4503 102.001H58.598L44.3885 58.2363H43.9453L29.7081 102.001ZM28.9048 79.703H59.2628V89.0652H28.9048V79.703ZM95.6379 118.841C91.8155 118.841 88.5378 118.315 85.8049 117.263C83.0904 116.229 80.9299 114.816 79.3233 113.025C77.7168 111.234 76.6735 109.221 76.1933 106.986L87.1067 105.518C87.4391 106.368 87.9654 107.162 88.6855 107.9C89.4057 108.639 90.3567 109.23 91.5385 109.673C92.7388 110.135 94.1976 110.366 95.9149 110.366C98.4817 110.366 100.596 109.738 102.258 108.482C103.938 107.245 104.779 105.167 104.779 102.25V94.4665H104.28C103.763 95.6483 102.987 96.7655 101.953 97.818C100.919 98.8706 99.5897 99.7292 97.9647 100.394C96.3397 101.059 94.4007 101.391 92.1479 101.391C88.9533 101.391 86.0449 100.653 83.4227 99.1753C80.8191 97.6795 78.7416 95.399 77.1905 92.3336C75.6578 89.2498 74.8915 85.3535 74.8915 80.6447C74.8915 75.8251 75.6763 71.7996 77.2459 68.568C78.8155 65.3365 80.9022 62.9175 83.5058 61.3109C86.128 59.7044 88.9995 58.9011 92.1202 58.9011C94.5023 58.9011 96.4966 59.3074 98.1031 60.1199C99.7097 60.9139 101.002 61.9111 101.981 63.1113C102.978 64.2932 103.744 65.4565 104.28 66.6014H104.723V59.4551H116.44V102.416C116.44 106.035 115.553 109.064 113.781 111.501C112.008 113.939 109.552 115.767 106.413 116.986C103.292 118.223 99.7004 118.841 95.6379 118.841ZM95.8872 92.5275C97.7892 92.5275 99.3958 92.0567 100.707 91.1149C102.036 90.1547 103.052 88.7882 103.754 87.0155C104.474 85.2243 104.834 83.0822 104.834 80.5893C104.834 78.0964 104.483 75.9359 103.781 74.1078C103.08 72.2612 102.064 70.8301 100.735 69.8145C99.405 68.7988 97.7892 68.291 95.8872 68.291C93.9483 68.291 92.3141 68.8173 90.9845 69.8699C89.655 70.904 88.6486 72.3443 87.9654 74.1909C87.2821 76.0375 86.9405 78.1703 86.9405 80.5893C86.9405 83.0453 87.2821 85.1689 87.9654 86.9601C88.6671 88.7328 89.6735 90.1085 90.9845 91.0872C92.3141 92.0474 93.9483 92.5275 95.8872 92.5275Z" fill="white"/>
<path fill-rule="evenodd" clip-rule="evenodd" d="M91.9271 32.0902L87.6316 36.3857C84.5815 39.4359 84.5815 44.3811 87.6316 47.4312C90.6817 50.4813 95.627 50.4813 98.6771 47.4312L102.973 43.1357L100.144 40.3073L95.8487 44.6028C94.3606 46.0908 91.9481 46.0908 90.4601 44.6028C88.972 43.1148 88.972 40.7022 90.4601 39.2142L94.7556 34.9187L91.9271 32.0902ZM107.508 32.9436L111.803 28.6482C113.291 27.1602 113.291 24.7476 111.803 23.2596C110.315 21.7716 107.903 21.7716 106.415 23.2596L102.119 27.555L99.2908 24.7266L103.586 20.4312C106.636 17.381 111.582 17.381 114.632 20.4312C117.682 23.4813 117.682 28.4265 114.632 31.4766L110.336 35.7721L107.508 32.9436Z" fill="#F2A33C"/>
<path d="M95.6086 25.9541V18.5905" stroke="#F2A33C" stroke-width="1.73563"/>
<path d="M93.1545 28.4086H85.7908" stroke="#F2A33C" stroke-width="1.73563"/>
<path d="M95.6086 25.9541V18.5905" stroke="#F2A33C" stroke-width="4"/>
<path d="M106.654 41.9085V49.2721" stroke="#F2A33C" stroke-width="4"/>
<path d="M93.1545 28.4086H85.7908" stroke="#F2A33C" stroke-width="4"/>
<path d="M109.108 39.454H116.472" stroke="#F2A33C" stroke-width="4"/>
</svg>
